<svg width="37" height="36" viewBox="0 0 37 36" fill="none" xmlns="http://www.w3.org/2000/svg">
<path d="M18 1C27.3927 1 35 8.60729 35 18C35 27.3927 27.3927 35 18 35C8.60729 35 1 27.3927 1 18C1 8.60729 8.60729 1 18 1Z" fill="white" fill-opacity="0.75" stroke="#424242" stroke-width="2"/>
<path d="M21.6562 11C22.674 11 23.5034 11.8287 23.5039 12.8467V23.0117C23.5039 24.0304 22.6739 24.8584 21.6562 24.8584C20.639 24.8578 19.8096 24.0299 19.8096 23.0117V12.8467C19.81 11.8292 20.639 11.0006 21.6562 11Z" fill="#2F2F2F"/>
<path d="M14.3467 11C15.3644 11 16.1939 11.8287 16.1943 12.8467V23.0117C16.1943 24.0304 15.3644 24.8584 14.3467 24.8584C13.3294 24.8578 12.5 24.0299 12.5 23.0117V12.8467C12.5005 11.8292 13.3294 11.0006 14.3467 11Z" fill="#2F2F2F"/>
</svg>
