<svg width="36" height="36" viewBox="0 0 36 36" fill="none" xmlns="http://www.w3.org/2000/svg">
<g clip-path="url(#clip0_1291_1627)">
<path d="M18 1C27.3927 1 35 8.60729 35 18C35 27.3927 27.3927 35 18 35C8.60729 35 1 27.3927 1 18C1 8.60729 8.60729 1 18 1Z" fill="white" fill-opacity="0.75" stroke="#424242" stroke-width="2"/>
<path fill-rule="evenodd" clip-rule="evenodd" d="M14.6116 11.5283C14.9607 11.5283 15.255 11.6975 15.428 11.8056L23.4875 16.8427C23.6288 16.931 23.7705 17.0495 23.8792 17.1581C23.9228 17.2018 23.9911 17.2688 24.052 17.371L24.1096 17.4853L24.1516 17.6093C24.2295 17.9013 24.1722 18.2144 24.0198 18.4687L24.0178 18.4667C23.9328 18.62 23.7981 18.756 23.6458 18.8437L23.6467 18.8456L15.218 24.1826L15.1965 24.1962L15.1741 24.207C15.0612 24.2634 14.8524 24.3445 14.6545 24.3447C13.9914 24.3447 13.5865 23.7815 13.5227 23.2714L13.5188 23.2402V12.621C13.5188 12.3669 13.6121 12.1902 13.6565 12.1015L13.7375 11.9697C13.8302 11.843 13.9559 11.734 14.092 11.666L14.1926 11.6201C14.3083 11.5735 14.4631 11.5283 14.6116 11.5283Z" fill="#2F2F2F"/>
</g>
<defs>
<clipPath id="clip0_1291_1627">
<rect width="36" height="36" fill="white"/>
</clipPath>
</defs>
</svg>
