<svg width="36" height="36" viewBox="0 0 36 36" fill="none" xmlns="http://www.w3.org/2000/svg">
<path d="M18 1C27.3927 1 35 8.60729 35 18C35 27.3927 27.3927 35 18 35C8.60729 35 1 27.3927 1 18C1 8.60729 8.60729 1 18 1Z" fill="white" fill-opacity="0.75" stroke="#424242" stroke-width="2"/>
<path d="M18.1758 8.48584C18.3567 8.37745 18.5816 8.37174 18.7676 8.47119L23.042 10.7573C23.2369 10.8618 23.3584 11.0655 23.3584 11.2866C23.3582 11.5077 23.2369 11.7116 23.042 11.8159L18.7676 14.1011C18.5818 14.2004 18.3566 14.1956 18.1758 14.0874C17.9951 13.9791 17.8841 13.7833 17.8838 13.5728V12.5239C15.0283 12.8384 12.7833 15.3162 12.7832 18.3374C12.7835 22.1779 16.3986 25.1363 20.3145 23.9067C20.9766 23.6975 21.7315 23.2087 22.3965 22.5669C23.0609 21.9256 23.5831 21.1815 23.8271 20.5142C24.4052 18.936 24.3091 17.4555 23.7959 16.189L23.7949 16.187C23.5679 15.6223 23.7868 14.9662 24.3193 14.6694L24.4307 14.6147C24.9782 14.3775 25.5663 14.5994 25.873 15.0444L25.9307 15.1372L25.9619 15.1997C26.7287 17.0262 26.8693 19.1723 26.042 21.4038C25.1902 23.6897 23.3326 25.4777 21.0391 26.2026H21.0371C15.4901 27.9416 10.4007 23.7201 10.4004 18.3374C10.4005 14.0044 13.691 10.4303 17.8838 10.1021V9.00049C17.8838 8.78971 17.995 8.59427 18.1758 8.48584Z" fill="#2F2F2F"/>
</svg>
